<?xml version="1.0" encoding="UTF-8"?>
<svg width="48px" height="40px" viewBox="0 0 48 40" version="1.1" xmlns="http://www.w3.org/2000/svg" xmlns:xlink="http://www.w3.org/1999/xlink">
    <!-- Generator: Sketch 52.5 (67469) - http://www.bohemiancoding.com/sketch -->
    <title>bars-white</title>
    <desc>Created with Sketch.</desc>
    <g id="v" stroke="none" stroke-width="1" fill="none" fill-rule="evenodd">
        <g id="bars-white" fill="#FFFFFF" fill-rule="nonzero">
            <path d="M46.3829787,5.95744681 L1.27659574,5.95744681 C0.571595745,5.95744681 0,5.38585106 0,4.68085106 L0,1.27659574 C0,0.571595745 0.571595745,0 1.27659574,0 L46.3829787,0 C47.0879787,0 47.6595745,0.571595745 47.6595745,1.27659574 L47.6595745,4.68085106 C47.6595745,5.38585106 47.0879787,5.95744681 46.3829787,5.95744681 Z M46.3829787,22.9787234 L1.27659574,22.9787234 C0.571595745,22.9787234 0,22.4071277 0,21.7021277 L0,18.2978723 C0,17.5928723 0.571595745,17.0212766 1.27659574,17.0212766 L46.3829787,17.0212766 C47.0879787,17.0212766 47.6595745,17.5928723 47.6595745,18.2978723 L47.6595745,21.7021277 C47.6595745,22.4071277 47.0879787,22.9787234 46.3829787,22.9787234 Z M46.3829787,40 L1.27659574,40 C0.571595745,40 0,39.4284043 0,38.7234043 L0,35.3191489 C0,34.6141489 0.571595745,34.0425532 1.27659574,34.0425532 L46.3829787,34.0425532 C47.0879787,34.0425532 47.6595745,34.6141489 47.6595745,35.3191489 L47.6595745,38.7234043 C47.6595745,39.4284043 47.0879787,40 46.3829787,40 Z" id="Shape"></path>
        </g>
    </g>
</svg>