<svg height="26" viewBox="0 0 26 26" width="26" xmlns="http://www.w3.org/2000/svg"><path d="m16.1700152 17.6419346c-4.2280036 0-7.6671731-3.4395029-7.6671731-7.6671731 0-4.22750352 3.4391695-7.66700638 7.6671731-7.66700638 4.2270035 0 7.6670063 3.43950286 7.6670063 7.66700638 0 4.2276702-3.4400028 7.6671731-7.6670063 7.6671731m0-17.05018091c-5.173671 0-9.3830079 4.20933684-9.3830079 9.38300781 0 2.1406685.7280007 4.1103368 1.939835 5.6910047l-7.8090065 7.8085065c-.4871671.4876671-.4871671 1.2791678.0005 1.7678348.4881671.4875004 1.2791677.4875004 1.7673348 0l7.8110065-7.8110065c1.577668 1.2031677 3.5406696 1.926835 5.6733381 1.926835 5.1736709 0 9.3825078-4.2095035 9.3825078-9.3831745 0-5.17367097-4.2088369-9.38300781-9.3825078-9.38300781" fill="#4a4a4a" fill-rule="evenodd"/></svg>