<?xml version="1.0" encoding="utf-8"?>
<!-- Generator: Adobe Illustrator 23.0.1, SVG Export Plug-In . SVG Version: 6.00 Build 0)  -->
<svg version="1.1" id="Layer_1" xmlns="http://www.w3.org/2000/svg" xmlns:xlink="http://www.w3.org/1999/xlink" x="0px" y="0px"
	 viewBox="0 0 105 105" style="enable-background:new 0 0 105 105;" xml:space="preserve">
<style type="text/css">
	.st0{fill:#FFFFFF;}
</style>
<g>
	<path class="st0" d="M52,102.7c-27.6,0-50-22.4-50-50c0-27.6,22.4-50,50-50s50,22.4,50,50C102,80.2,79.6,102.7,52,102.7z M52,6.6
		C26.6,6.6,5.9,27.3,5.9,52.7c0,25.4,20.7,46.1,46.1,46.1c25.4,0,46.1-20.7,46.1-46.1C98.1,27.3,77.4,6.6,52,6.6z"/>
	<path class="st0" d="M41.7,77.2c-0.3,0-0.6-0.1-0.9-0.2c-0.7-0.3-1.1-1-1.1-1.8l0-45c0-0.7,0.4-1.4,1.1-1.8
		c0.7-0.3,1.5-0.3,2.1,0.2L73,51.1c0.5,0.4,0.8,1,0.8,1.6c0,0.6-0.3,1.2-0.8,1.6L42.9,76.8C42.6,77,42.2,77.2,41.7,77.2z M43.7,34.1
		l0,37.2l24.8-18.6L43.7,34.1z"/>
</g>
</svg>
