<?xml version="1.0" encoding="UTF-8" standalone="no"?>
<svg width="104px" height="74px" viewBox="0 0 104 74" version="1.1" xmlns="http://www.w3.org/2000/svg" xmlns:xlink="http://www.w3.org/1999/xlink">
    <!-- Generator: Sketch 41.2 (35397) - http://www.bohemiancoding.com/sketch -->
    <title>quote_open</title>
    <desc>Created with Sketch.</desc>
    <defs></defs>
    <g id="Case-Study---Miranda" stroke="none" stroke-width="1" fill="none" fill-rule="evenodd">
        <g id="Desktop-HD" transform="translate(-232.000000, -1835.000000)" fill="#FFFFFF">
            <g id="quote_normal" transform="translate(0.000000, 1699.000000)">
                <path d="M335.980263,187.506502 C335.980263,193.793713 333.965162,199.032976 329.934899,203.224449 C325.904636,207.415923 320.665373,209.511628 314.216952,209.511628 C306.317637,209.511628 299.829011,206.56958 294.75088,200.685396 C289.672748,194.801212 287.133721,187.748358 287.133721,179.526622 C287.133721,167.597044 291.566944,157.360329 300.433522,148.816172 C309.3001,140.272015 320.020439,136 332.594859,136 L333.078488,139.385404 C325.340384,139.385404 318.247227,142.125942 311.798807,147.607099 C305.350386,153.088257 302.126224,159.375373 302.126224,166.468635 C302.126224,168.08074 302.327734,169.289801 302.73076,170.095854 C303.133787,170.901906 303.738317,171.304927 304.54437,171.304927 C305.672843,171.304927 307.40583,170.781 309.743383,169.733132 C312.080935,168.685264 314.055734,168.161337 315.66784,168.161337 C320.987787,168.161337 325.703124,169.974928 329.813992,173.602165 C333.92486,177.229402 335.980263,181.864134 335.980263,187.506502 Z M280.846542,187.506502 C280.846542,193.793713 278.831441,199.032976 274.801178,203.224449 C270.770915,207.415923 265.531652,209.511628 259.083231,209.511628 C251.183916,209.511628 244.69529,206.56958 239.617159,200.685396 C234.539028,194.801212 232,187.748358 232,179.526622 C232,167.597044 236.433223,157.360329 245.299801,148.816172 C254.16638,140.272015 264.886718,136 277.461138,136 L277.944767,139.385404 C270.206663,139.385404 263.113506,142.125942 256.665086,147.607099 C250.216665,153.088257 246.992503,159.375373 246.992503,166.468635 C246.992503,168.08074 247.194013,169.289801 247.597039,170.095854 C248.000066,170.901906 248.604596,171.304927 249.410649,171.304927 C250.539122,171.304927 252.272109,170.781 254.609662,169.733132 C256.947214,168.685264 258.922014,168.161337 260.534119,168.161337 C265.854066,168.161337 270.569403,169.974928 274.680271,173.602165 C278.791139,177.229402 280.846542,181.864134 280.846542,187.506502 Z" id="quote_open"></path>
            </g>
        </g>
    </g>
</svg>