<?xml version="1.0" encoding="utf-8"?>
<!-- Generator: Adobe Illustrator 19.2.1, SVG Export Plug-In . SVG Version: 6.00 Build 0)  -->
<svg version="1.1" id="Layer_1" xmlns="http://www.w3.org/2000/svg" xmlns:xlink="http://www.w3.org/1999/xlink" x="0px" y="0px"
	 viewBox="0 0 50 35" style="enable-background:new 0 0 50 35;" xml:space="preserve">
<style type="text/css">
	.st0{fill:#22B573;}
</style>
<title>icon-circle-check</title>
<path class="st0" d="M17.7,35C8,35,0.2,27.2,0.2,17.5S8,0,17.7,0s17.5,7.8,17.5,17.5C35.2,27.2,27.3,35,17.7,35z M17.7,1.6
	C8.9,1.6,1.7,8.7,1.7,17.5s7.1,15.9,15.9,15.9s15.9-7.1,15.9-15.9c0,0,0,0,0,0C33.6,8.7,26.5,1.6,17.7,1.6z M24,14.3l-1.1-1.1l-7,7
	l-3.5-3.5l-1.1,1.1l4.6,4.6L24,14.3z"/>
</svg>
