<?xml version="1.0" encoding="UTF-8" standalone="no"?>
<svg width="105px" height="75px" viewBox="0 0 105 75" version="1.1" xmlns="http://www.w3.org/2000/svg" xmlns:xlink="http://www.w3.org/1999/xlink">
    <!-- Generator: Sketch 41.2 (35397) - http://www.bohemiancoding.com/sketch -->
    <title>quote_close</title>
    <desc>Created with Sketch.</desc>
    <defs></defs>
    <g id="Case-Study---Miranda" stroke="none" stroke-width="1" fill="none" fill-rule="evenodd">
        <g id="Desktop-HD" transform="translate(-1105.000000, -1937.000000)" fill="#FFFFFF">
            <g id="quote_normal" transform="translate(0.000000, 1699.000000)">
                <path d="M1107.93023,308.813953 C1115.74423,308.813953 1122.90694,306.046539 1129.4186,300.511628 C1135.93027,294.976717 1139.18605,288.627943 1139.18605,281.465116 C1139.18605,278.209286 1138.4535,276.581395 1136.98837,276.581395 C1135.84883,276.581395 1134.01745,277.11046 1131.49419,278.168605 C1128.97092,279.226749 1126.97675,279.755814 1125.51163,279.755814 C1120.3023,279.755814 1115.58142,277.88374 1111.34884,274.139535 C1107.11626,270.39533 1105,265.755842 1105,260.22093 C1105,253.872061 1107.03486,248.581417 1111.10465,244.348837 C1115.17444,240.116258 1120.46508,238 1126.97674,238 C1134.95353,238 1141.50579,240.970901 1146.63372,246.912791 C1151.76165,252.854681 1154.32558,259.976703 1154.32558,268.27907 C1154.32558,280.325642 1149.84888,290.662748 1140.89535,299.290698 C1131.94182,307.918648 1121.11634,312.232558 1108.4186,312.232558 L1107.93023,308.813953 Z M1163.60465,308.813953 C1171.41864,308.813953 1178.58136,306.046539 1185.09302,300.511628 C1191.60468,294.976717 1194.86047,288.627943 1194.86047,281.465116 C1194.86047,278.209286 1194.12791,276.581395 1192.66279,276.581395 C1191.52325,276.581395 1189.69187,277.11046 1187.1686,278.168605 C1184.64534,279.226749 1182.65117,279.755814 1181.18605,279.755814 C1175.81393,279.755814 1171.05235,277.924437 1166.90116,274.261628 C1162.74998,270.598819 1160.67442,265.918633 1160.67442,260.22093 C1160.67442,253.872061 1162.70928,248.581417 1166.77907,244.348837 C1170.84886,240.116258 1176.1395,238 1182.65116,238 C1190.62795,238 1197.18021,240.970901 1202.30814,246.912791 C1207.43607,252.854681 1210,259.976703 1210,268.27907 C1210,280.325642 1205.5233,290.662748 1196.56977,299.290698 C1187.61623,307.918648 1176.79076,312.232558 1164.09302,312.232558 L1163.60465,308.813953 Z" id="quote_close"></path>
            </g>
        </g>
    </g>
</svg>