<?xml version="1.0" encoding="utf-8"?>
<!-- Generator: Adobe Illustrator 19.2.1, SVG Export Plug-In . SVG Version: 6.00 Build 0)  -->
<svg version="1.1" id="Layer_1" xmlns="http://www.w3.org/2000/svg" xmlns:xlink="http://www.w3.org/1999/xlink" x="0px" y="0px"
	 viewBox="0 0 50 35" style="enable-background:new 0 0 50 35;" xml:space="preserve">
<style type="text/css">
	.st0{fill:#FF0000;}
</style>
<title>icon-circle-close</title>
<path class="st0" d="M17.5,0C7.8,0,0,7.8,0,17.5S7.8,35,17.5,35S35,27.2,35,17.5C35,7.8,27.2,0,17.5,0z M17.5,33.4
	c-8.8,0-15.9-7.1-15.9-15.9S8.7,1.6,17.5,1.6c8.8,0,15.9,7.1,15.9,15.9C33.4,26.3,26.3,33.4,17.5,33.4z M23.5,22.2
	c0.3,0.3,0.4,0.8,0.1,1.1s-0.8,0.4-1.1,0.1c0,0-0.1-0.1-0.1-0.1l-4.7-4.7L13,23.3c-0.3,0.3-0.8,0.2-1.1-0.1c-0.2-0.3-0.2-0.7,0-1
	l4.7-4.7l-4.7-4.7c-0.3-0.3-0.2-0.8,0.1-1.1c0.3-0.2,0.7-0.2,1,0l4.7,4.7l4.7-4.7c0.3-0.3,0.8-0.2,1.1,0.1c0.2,0.3,0.2,0.7,0,1
	l-4.7,4.7L23.5,22.2z"/>
</svg>
