<?xml version="1.0" encoding="UTF-8" standalone="no"?>
<svg width="104px" height="74px" viewBox="0 0 104 74" version="1.1" xmlns="http://www.w3.org/2000/svg" xmlns:xlink="http://www.w3.org/1999/xlink">
    <!-- Generator: Sketch 41.2 (35397) - http://www.bohemiancoding.com/sketch -->
    <title>icon-quote-open_black</title>
    <desc>Created with Sketch.</desc>
    <defs></defs>
    <g id="Case-Study---Miranda" stroke="none" stroke-width="1" fill="none" fill-rule="evenodd">
        <g id="Desktop-HD" transform="translate(-230.000000, -2460.000000)" fill="#000000">
            <g id="story-block-1" transform="translate(0.000000, 2360.000000)">
                <g id="quote-on-bg" transform="translate(0.000000, 100.000000)">
                    <path d="M333.980263,51.5065024 C333.980263,57.7937126 331.965162,63.0329758 327.934899,67.2244492 C323.904636,71.4159226 318.665373,73.5116279 312.216952,73.5116279 C304.317637,73.5116279 297.829011,70.5695801 292.75088,64.6853963 C287.672748,58.8012124 285.133721,51.7483581 285.133721,43.5266218 C285.133721,31.5970436 289.566944,21.3603293 298.433522,12.816172 C307.3001,4.2720146 318.020439,0 330.594859,0 L331.078488,3.38540392 C323.340384,3.38540392 316.247227,6.12594159 309.798807,11.6070991 C303.350386,17.0882567 300.126224,23.3753725 300.126224,30.4686353 C300.126224,32.0807404 300.327734,33.2898012 300.73076,34.0958537 C301.133787,34.9019063 301.738317,35.3049266 302.54437,35.3049266 C303.672843,35.3049266 305.40583,34.7810002 307.743383,33.7331319 C310.080935,32.6852635 312.055734,32.1613372 313.66784,32.1613372 C318.987787,32.1613372 323.703124,33.9749283 327.813992,37.6021649 C331.92486,41.2294016 333.980263,45.8641344 333.980263,51.5065024 Z M278.846542,51.5065024 C278.846542,57.7937126 276.831441,63.0329758 272.801178,67.2244492 C268.770915,71.4159226 263.531652,73.5116279 257.083231,73.5116279 C249.183916,73.5116279 242.69529,70.5695801 237.617159,64.6853963 C232.539028,58.8012124 230,51.7483581 230,43.5266218 C230,31.5970436 234.433223,21.3603293 243.299801,12.816172 C252.16638,4.2720146 262.886718,0 275.461138,0 L275.944767,3.38540392 C268.206663,3.38540392 261.113506,6.12594159 254.665086,11.6070991 C248.216665,17.0882567 244.992503,23.3753725 244.992503,30.4686353 C244.992503,32.0807404 245.194013,33.2898012 245.597039,34.0958537 C246.000066,34.9019063 246.604596,35.3049266 247.410649,35.3049266 C248.539122,35.3049266 250.272109,34.7810002 252.609662,33.7331319 C254.947214,32.6852635 256.922014,32.1613372 258.534119,32.1613372 C263.854066,32.1613372 268.569403,33.9749283 272.680271,37.6021649 C276.791139,41.2294016 278.846542,45.8641344 278.846542,51.5065024 Z" id="icon-quote-open_black"></path>
                </g>
            </g>
        </g>
    </g>
</svg>