<svg height="27" viewBox="0 0 30 27" width="30" xmlns="http://www.w3.org/2000/svg"><path d="m165.622782 4.17371017h-21.978041l-.433051-2.30968804c-.110693-.59017331-.625996-1.01786828-1.226464-1.01786828h-4.438232c-.344558 0-.623917.27935875-.623917.62391681v.41594454c0 .34455806.279359.62391681.623917.62391681h4.092894l3.635719 19.39060659c-.537712.5910572-.865528 1.3764645-.865528 2.2385095 0 1.837747 1.489809 3.3275564 3.327556 3.3275564s3.327556-1.4898094 3.327556-3.3275564c.000648-.5842521-.153315-1.1582723-.446256-1.6637781h7.547677c-.292941.5055058-.446904 1.079526-.446256 1.6637781 0 1.837747 1.489809 3.3275564 3.327556 3.3275564s3.327557-1.4898094 3.327557-3.3275564c0-.9355112-.386569-1.7802426-1.008042-2.384818-.134714-.532461-.616274-.9427383-1.210659-.9427383h-15.392443l-.623917-3.3275563h17.229515c.591057 0 1.101057-.4146967 1.221629-.9933276l2.252911-10.81455804c.161387-.77490468-.430138-1.50233969-1.221681-1.50233969zm-16.221369 19.96533793c0 .9174177-.74636 1.6637782-1.663778 1.6637782s-1.663778-.7463605-1.663778-1.6637782.74636-1.6637781 1.663778-1.6637781 1.663778.7463604 1.663778 1.6637781zm11.646447 1.6637782c-.917417 0-1.663778-.7463605-1.663778-1.6637782s.746361-1.6637781 1.663778-1.6637781c.917418 0 1.663778.7463604 1.663778 1.6637781s-.74636 1.6637782-1.663778 1.6637782zm1.983848-9.982669h-17.203258l-1.871751-9.98266897h21.154731z" fill="#fff" transform="translate(-136.923077 -.846154)"/></svg>