<svg height="26" viewBox="0 0 26 26" width="26" xmlns="http://www.w3.org/2000/svg"><path d="m25.4231948 24.0957263c-1.6571788-1.7373917-4.1595886-1.7789959-6.0931858-2.3131939-2.2101819-.6124139-4.03877-1.4644681-3.3518014-4.1154882.2777497-1.0733886.9878504-1.868861 1.4714577-2.8706903.5328666-1.1066719.862372-2.3897457.965384-3.589611.0923613-1.0584111-.0171409-2.16841133-.0664003-3.19686734-.0582459-1.19487283-.3444829-1.8056226-1.0319508-2.7558627-.8452311-1.17157448-2.5944384-2.63437841-3.5426815-2.77916105v-.00998501c-.6864694 0-.734231.00166417-.7849881.00332833l-.0426028-.00332833h-.0236311c-.0216342-.00166417-.0402729-.00332834-.8129463-.00332834v.00832084c.7375594 0 .7184215.00166417.709435.00166417-1.6287215.12314846-3.4013936 1.6009299-4.2537806 2.78248939-.68796717.95190427-.97370487 1.56098987-1.03245001 2.7558627-.04876013 1.02845601-.1582624 2.13845624-.06590106 3.19686734.10301201 1.1998653.43251734 2.4829391.96538403 3.589611.4836073 1.0034935 1.19370792 1.7973017 1.4714576 2.8706903.68696864 2.6510201-1.14161945 3.5030743-3.35180136 4.1154882-1.93359715.5358622-4.43600702.5758022-5.64186336 2.5428492-.35762977.5824589-.75786225 2.1950379-.0968546 2.7225793.5794634.4626388 2.3672794.366117 3.12264539.366117 1.87235576 0 7.15309457.009985 9.83789727.009985 1.368612-.0016641 6.4338411-.0116492 8.1720649-.0116492.755366 0 2.543182.098186 3.1226454-.3644528.6610076-.5292055.2602759-2.1417846.3544678-2.9522346z" fill="#fbfff7" fill-rule="evenodd" transform="translate(.076923 -1.846154)"/></svg>