<svg height="369" viewBox="0 0 360 369" width="360" xmlns="http://www.w3.org/2000/svg"><g fill="#fff"><path d="m180 0c-114.7 0-180 39.1-180 98 0 110 126.9 258.4 175.2 270.2 1.7.4 3.3.7 4.8.7 1.5-.1 3.1-.3 4.7-.7 48.4-11.8 175.3-160.2 175.3-270.2 0-58.9-65.4-98-180-98zm76 301.8c-9.5 10.9-19.1 20.8-28.4 29.4-9.1 8.4-17.7 15.3-25.5 20.5-7.4 5-14.1 8.3-19.1 9.5-1.1.3-2.1.4-3 .5-.9-.1-1.9-.2-3-.5-5.1-1.2-11.7-4.5-19.1-9.5-7.8-5.2-16.4-12.1-25.5-20.5-9.3-8.6-18.8-18.5-28.4-29.4-9.9-11.3-19.5-23.5-28.6-36.1-19.9-27.5-36.5-56.4-48.1-83.6-6.4-14.9-11.3-29.4-14.7-43.1-3.6-14.5-5.4-28.3-5.4-41 0-13.2 3.6-25.4 10.8-36.2 7.3-11 18.2-20.6 32.5-28.6 14.9-8.3 33.2-14.7 54.4-19.1 22.2-4.6 47.4-6.9 75-6.9h.1c27.6 0 52.8 2.3 75 6.9 21.3 4.4 39.6 10.8 54.4 19.1 14.3 8 25.2 17.6 32.5 28.6 7.2 10.8 10.8 23 10.8 36.2 0 12.7-1.8 26.5-5.3 41-3.3 13.7-8.3 28.2-14.7 43.1-11.6 27.2-28.3 56.1-48.1 83.6-9 12.6-18.7 24.8-28.6 36.1z"/><path d="m51 169.8c-.3.3-.6.4-1 .4h-4.6c-.4 0-.8-.1-1-.4-.3-.3-.4-.6-.4-1v-32c0-.4.1-.8.4-1 .3-.3.6-.4 1-.4h14.1c2.5 0 4.7.5 6.6 1.5s3.4 2.4 4.4 4.3c1 1.8 1.6 3.9 1.6 6.3 0 2.5-.6 4.7-1.9 6.7s-3 3.4-5.2 4.3l1.3 1.7c.6.8 1.4 1.8 2.4 3.1s2.3 3 3.9 5.1c.3.3.4.6.4.9s-.1.5-.3.6c-.2.2-.5.2-.9.2h-5.7c-.7 0-1.3-.3-1.8-.8-2.4-3.1-5-6.4-7.7-10.1h-5.1v9.4c-.1.5-.3.9-.5 1.2zm8.4-17.1c1.4 0 2.6-.5 3.6-1.5s1.5-2.3 1.5-3.9-.4-2.9-1.2-4-2.1-1.6-3.9-1.6h-8v10.9h8z"/><path d="m83.7 169.4c-2.1-.9-3.9-2.4-5.4-4.3-1.6-2-2.3-4.7-2.3-8 0-2.7.6-5.1 1.9-7.1 1.3-2.1 3-3.7 5.1-4.8 2.2-1.1 4.6-1.7 7.2-1.7 2.4 0 4.6.5 6.6 1.5s3.7 2.5 5 4.5c.9 1.3 1.4 2.5 1.7 3.7s.4 2.6.4 4.2c0 .7-.2 1.2-.5 1.7-.4.4-.8.7-1.5.7h-18.8c.3 1.7 1.2 2.9 2.6 3.6 1.4.8 2.9 1.1 4.5 1.1 1.3 0 2.4-.2 3.3-.6s1.7-.9 2.5-1.6c.4-.3.8-.5 1.1-.5s.6.1.9.3l3.1 1.8c.5.3.8.6.8 1 0 .3-.1.6-.4.9-2.9 3.3-6.7 4.9-11.3 4.9-2.2.1-4.4-.4-6.5-1.3zm1.7-18.2c-1.3 1-2 2.1-2.1 3.6h13.1c-.1-.9-.4-1.7-1-2.4-.5-.8-1.3-1.4-2.1-1.9-.9-.5-1.9-.7-3.1-.7-2-.1-3.6.4-4.8 1.4z"/><path d="m129.9 169.8c-.3-.3-.4-.6-.4-1v-1.2c-.6.9-1.7 1.6-3.2 2.2s-3.1 1-4.8 1c-2.7 0-5-.6-7-1.8s-3.5-2.9-4.6-5c-1-2.1-1.6-4.4-1.6-6.9 0-2.6.5-4.9 1.6-7s2.6-3.7 4.6-4.9 4.3-1.8 7-1.8c1.7 0 3.3.3 4.7.9s2.5 1.4 3.2 2.4v-1.3c0-.4.1-.8.4-1 .3-.3.6-.4 1-.4h4.2c.4 0 .8.1 1 .4.3.3.4.6.4 1v23.4c0 .4-.1.8-.4 1-.3.3-.6.4-1 .4h-4.2c-.3-.1-.6-.2-.9-.4zm-2.1-18.2c-1.3-1.4-3.1-2-5.2-2-2.2 0-3.9.7-5.2 2-1.3 1.4-2 3.2-2 5.4s.7 3.9 2 5.3 3.1 2.1 5.2 2.1c2.2 0 4-.7 5.3-2s1.9-3.1 1.9-5.4c0-2.2-.7-4-2-5.4z"/><path d="m144.1 169.8c-.3-.3-.4-.6-.4-1v-33.2c0-.4.1-.8.4-1 .3-.3.6-.4 1-.4h4.3c.4 0 .8.1 1 .4.3.3.4.6.4 1v33.2c0 .4-.1.8-.4 1-.3.3-.6.4-1 .4h-4.3c-.4-.1-.8-.2-1-.4z"/><path d="m208.1 135.6c.3 0 .5.1.6.3s.2.5.2.9v31.8c0 .4-.1.8-.4 1-.3.3-.6.4-1 .4h-4.7c-.4 0-.8-.1-1-.4-.3-.3-.4-.6-.4-1v-15.2l-9.7 11.2c-.3.4-.6.6-1 .6-.3 0-.7-.2-1-.6l-9.7-11.2v15.2c0 .4-.1.8-.4 1-.3.3-.6.4-1 .4h-4.7c-.4 0-.8-.1-1-.4-.3-.3-.4-.6-.4-1v-31.8c0-.4.1-.7.2-.9s.3-.3.6-.3.6.2 1 .6l16.5 18.6 16.5-18.6c.1-.4.5-.6.8-.6z"/><path d="m216.4 159.5v-14.1c0-.4.1-.8.4-1 .3-.3.6-.4 1-.4h4.3c.4 0 .8.1 1 .4.3.3.4.6.4 1v14.1c0 1.8.4 3.1 1.3 4 .9.8 2.1 1.3 3.8 1.3 1.5 0 2.7-.6 3.7-1.7s1.4-2.9 1.3-5.2v-12.4c0-.4.1-.8.4-1 .3-.3.6-.4 1-.4h4.3c.4 0 .8.1 1 .4.3.3.4.6.4 1v23.3c0 .4-.1.8-.4 1-.3.3-.6.4-1 .4h-4.3c-.4 0-.8-.1-1-.4-.3-.3-.4-.6-.4-1v-.8c-.9.9-1.9 1.6-3.1 2.1s-2.5.7-3.9.7c-6.8-.1-10.2-3.8-10.2-11.3z"/><path d="m247.5 167.5c-.4-.3-.6-.6-.6-1 0-.3.1-.6.3-1l2-2.7c.3-.4.7-.6 1.1-.6.3 0 .6.1.9.2 1.1.6 2.4 1.1 3.6 1.5 1.3.4 2.5.6 3.7.6 1.1 0 2-.2 2.7-.7.7-.4 1.1-1 1.1-1.7 0-.6-.3-1-1-1.3s-1.5-.5-2.6-.7l-1.5-.2c-2.2-.3-3.9-.8-5.2-1.2-1.3-.5-2.4-1.2-3.5-2.3s-1.7-2.7-1.7-4.7c0-3 1.1-5.1 3.2-6.4s4.7-1.9 7.6-1.9c1.8 0 3.6.2 5.1.7 1.6.5 3.1 1.2 4.6 2.2.4.3.7.6.7 1 0 .3-.1.6-.4 1l-2 2.7c-.3.4-.7.6-1.1.6-.3 0-.6-.1-.9-.2-2.2-1.2-4.3-1.8-6.2-1.8-.9 0-1.6.2-2.4.5-.7.4-1.1.8-1.1 1.4 0 .7.4 1.2 1.3 1.5s2.1.6 3.6.8c2.5.4 4.4.9 5.6 1.3s2.3 1.2 3.3 2.2c1 1.2 1.5 2.8 1.5 4.8 0 2.7-.9 4.8-2.8 6.3s-4.5 2.2-8 2.2c-4 .2-7.7-.9-10.9-3.1z"/><path d="m281.7 140c-.8.7-1.7 1.1-2.8 1.1s-2.1-.4-2.8-1.1c-.8-.7-1.2-1.7-1.2-2.7s.4-1.9 1.2-2.7c.8-.7 1.7-1.1 2.8-1.1s2 .4 2.8 1.1 1.1 1.6 1.1 2.7c.1 1.1-.3 2-1.1 2.7zm-5.9 29.8c-.3-.3-.4-.6-.4-1v-23.3c0-.4.1-.8.4-1 .3-.3.6-.4 1-.4h4.3c.4 0 .8.1 1 .4.3.3.4.6.4 1v23.3c0 .4-.1.8-.4 1-.3.3-.6.4-1 .4h-4.3c-.4-.1-.8-.2-1-.4z"/><path d="m295.5 169c-2.2-1.2-3.9-2.9-5.2-5s-2-4.4-2-6.9c0-2.4.6-4.7 1.9-6.8s3-3.8 5.2-5 4.5-1.8 7.1-1.8c2.5 0 4.8.5 6.9 1.6s3.8 2.6 5.2 4.7c.2.3.3.5.3.8 0 .5-.3.9-1 1.1l-3.8 1.5c-.2.1-.4.1-.7.1-.4 0-.9-.3-1.2-.8-1.5-1.9-3.4-2.8-5.7-2.8-2.1 0-3.8.7-5.1 2.1-1.4 1.4-2 3.2-2 5.3 0 1.4.3 2.7.9 3.8s1.5 2 2.6 2.6 2.3 1 3.7 1c2.4 0 4.4-.9 5.9-2.8.4-.5.8-.7 1.3-.7.2 0 .4 0 .7.1l3.4 1.3c.6.3 1 .6 1 1.1 0 .2-.1.5-.2.7-2.6 4.3-6.6 6.4-12 6.4-2.6.2-5-.4-7.2-1.6z"/><path d="m321.9 132.2c-.1.1-.2.1-.3.1h-2.5v7.7c0 .1 0 .2-.1.3s-.2.1-.3.1h-1.4c-.1 0-.2 0-.3-.1s-.1-.2-.1-.3v-7.7h-2.5c-.1 0-.2 0-.3-.1s-.1-.2-.1-.3v-1.1c0-.1 0-.2.1-.3s.2-.1.3-.1h7.2c.1 0 .2 0 .3.1s.1.2.1.3v1.1c0 .1 0 .2-.1.3z"/><path d="m332.2 130.7c0 .1 0 .1-.1.2l-4.5 9.2c-.1.1-.2.2-.3.2s-.2-.1-.3-.2l-4.5-9.2c0-.1-.1-.1-.1-.2 0-.2.1-.3.4-.3h1.5c.2 0 .4.1.5.3l2.5 5.2 2.5-5.2c.1-.2.3-.3.5-.3h1.5c.3 0 .4.1.4.3z"/></g></svg>