<svg height="752" viewBox="0 0 734 752" width="734" xmlns="http://www.w3.org/2000/svg"><path d="m725 3110c-233.860556 0-367 79.70507-367 199.7723 0 224.23421 258.735 526.74654 357.213333 550.80076 3.466111.81539 6.728334 1.42694 9.786667 1.42694 3.058333-.20385 6.320556-.61155 9.582778-1.42694 98.682222-24.05422 357.417222-326.56655 357.417222-550.80076 0-120.06723-133.343333-199.7723-367-199.7723zm154.681621 615.83441c-19.38495 22.23047-38.973951 42.42144-57.950796 59.96108-18.568741 17.13173-36.117222 31.20423-52.033285 41.80959-15.099855 10.19746-28.771346 16.92778-38.973951 19.37517-2.244573.61185-4.285094.8158-6.121563 1.01975-1.836469-.20395-3.87699-.4079-6.121563-1.01975-10.406657-2.44739-23.874095-9.17771-38.973951-19.37517-15.916063-10.60536-33.464544-24.67786-52.033285-41.80959-18.976845-17.53964-38.361794-37.73061-57.950796-59.96108-20.201157-23.04626-39.790159-47.92806-58.3589-73.62567-40.606367-56.08603-74.479016-115.02736-98.149059-170.50155-13.059335-30.38843-23.057887-59.96107-29.995659-87.90211-7.345875-29.57264-11.018813-57.71763-11.018813-83.61918 0-26.9213 7.345876-51.80311 22.037627-73.82962 14.895803-22.43442 37.137482-42.01354 66.316932-58.32948 30.403762-16.92779 67.745296-29.98054 111.004341-38.9543 45.299566-9.38167 96.720695-14.0725 153.039074-14.0725h.204052c56.318379 0 107.739508 4.69083 153.039074 14.0725 43.463097 8.97376 80.804631 22.02651 111.004341 38.9543 29.179449 16.31594 51.421129 35.89506 66.316929 58.32948 14.69175 22.02651 22.03763 46.90832 22.03763 73.82962 0 25.90155-3.67294 54.04654-10.81476 83.61918-6.73372 27.94104-16.93633 57.51368-29.99566 87.90211-23.67004 55.47419-57.746744 114.41552-98.149059 170.50155-18.364689 25.69761-38.157742 50.57941-58.3589 73.62567z" fill="#1b2d3b" transform="translate(-358 -3110)"/></svg>