<svg height="1494" viewBox="0 0 1440 1494" width="1440" xmlns="http://www.w3.org/2000/svg"><path d="m729.5 0c-464.853611 0-729.5 158.35023-729.5 396.888046 0 445.486581 514.2975 1046.488474 710.046667 1094.277044 6.889722 1.61995 13.374166 2.83491 19.453333 2.83491 6.079167-.40499 12.563611-1.21496 19.048056-2.83491 196.154444-47.78857 710.451944-648.790463 710.451944-1094.277044 0-238.537816-265.05167-396.888046-729.5-396.888046zm307.56241 1223.19623c-38.523463 44.15435-77.452434 84.25783-115.164875 119.0952-36.901421 34.0272-71.775291 61.97811-103.40508 83.04257-30.007749 20.25429-57.176927 33.62212-77.452433 38.48314-4.460611 1.21526-8.515712 1.62035-12.165303 2.02543-3.649591-.40508-7.704693-.81017-12.165304-2.02543-20.681016-4.86102-47.444684-18.22885-77.452432-38.48314-31.62979-21.06446-66.50366-49.01537-103.40508-83.04257-37.712441-34.83737-76.235903-74.94085-115.164874-119.0952-40.145502-45.77468-79.074473-95.19514-115.975894-146.23593-80.696513-111.398574-148.011193-228.468343-195.050366-338.651654-25.9526479-60.35777-45.8226437-119.095198-59.6099877-174.591939-14.5983642-58.737428-21.8975463-114.639255-21.8975463-166.085139 0-53.471314 14.5983642-102.89177 43.7950927-146.641026 29.6022383-44.559427 73.8028413-83.447655 131.7907883-115.854511 60.421008-33.622114 134.629359-59.5475991 220.597504-77.3713701 90.023246-18.6339425 192.211796-27.9509137 304.132589-27.9509137h.40551c111.920792 0 214.109342 9.3169712 304.132591 27.9509137 86.37365 17.823771 160.582 43.7492561 220.5975 77.3713701 57.98795 32.406856 102.18855 71.295084 131.79079 115.854511 29.19673 43.749256 43.79509 93.169712 43.79509 146.641026 0 51.445884-7.29918 107.347711-21.49203 166.085139-13.38184 55.496741-33.65734 114.234169-59.60999 174.591939-47.03917 110.183311-114.75936 227.25308-195.05037 338.651654-36.49591 51.04079-75.83039 100.46125-115.97589 146.23593z" fill="#1b2d3b" transform="translate(-9)"/></svg>